<svg width="30" height="30" viewBox="0 0 32 32" fill="none" xmlns="http://www.w3.org/2000/svg">
<path d="M24.625 0.999903H7.375C5.70129 0.984905 4.09 1.63459 2.8948 2.80635C1.6996 3.97812 1.01814 5.57622 1 7.2499L1 10.9999C1 11.3314 1.1317 11.6494 1.36612 11.8838C1.60054 12.1182 1.91848 12.2499 2.25 12.2499C2.58152 12.2499 2.89946 12.1182 3.13388 11.8838C3.3683 11.6494 3.5 11.3314 3.5 10.9999V7.2499C3.51776 6.23915 3.9357 5.27671 4.66214 4.5737C5.38858 3.87069 6.36421 3.48452 7.375 3.4999H24.625C25.6358 3.48452 26.6114 3.87069 27.3379 4.5737C28.0643 5.27671 28.4822 6.23915 28.5 7.2499V24.7499C28.4822 25.7607 28.0643 26.7231 27.3379 27.4261C26.6114 28.1291 25.6358 28.5153 24.625 28.4999H7.375C6.36421 28.5153 5.38858 28.1291 4.66214 27.4261C3.9357 26.7231 3.51776 25.7607 3.5 24.7499V20.9999C3.5 20.6684 3.3683 20.3504 3.13388 20.116C2.89946 19.8816 2.58152 19.7499 2.25 19.7499C1.91848 19.7499 1.60054 19.8816 1.36612 20.116C1.1317 20.3504 1 20.6684 1 20.9999L1 24.7499C1.01814 26.4236 1.6996 28.0217 2.8948 29.1935C4.09 30.3652 5.70129 31.0149 7.375 30.9999H24.625C26.2987 31.0149 27.91 30.3652 29.1052 29.1935C30.3004 28.0217 30.9819 26.4236 31 24.7499V7.2499C30.9819 5.57622 30.3004 3.97812 29.1052 2.80635C27.91 1.63459 26.2987 0.984905 24.625 0.999903V0.999903Z" fill="white"/>
<path d="M4.75 16C4.75 16.3315 4.8817 16.6495 5.11612 16.8839C5.35054 17.1183 5.66848 17.25 6 17.25L22.485 17.2125L17.0813 22.6163C16.9619 22.7316 16.8666 22.8695 16.8011 23.022C16.7356 23.1745 16.7011 23.3385 16.6997 23.5045C16.6982 23.6705 16.7299 23.8351 16.7927 23.9887C16.8556 24.1423 16.9484 24.2819 17.0658 24.3992C17.1831 24.5166 17.3227 24.6094 17.4763 24.6723C17.6299 24.7351 17.7945 24.7668 17.9605 24.7653C18.1265 24.7639 18.2905 24.7294 18.443 24.6639C18.5955 24.5984 18.7334 24.5031 18.8488 24.3838L24.5813 18.6513C25.2843 17.948 25.6792 16.9944 25.6792 16C25.6792 15.0056 25.2843 14.052 24.5813 13.3488L18.8513 7.61626C18.6155 7.38856 18.2997 7.26256 17.972 7.26541C17.6443 7.26826 17.3307 7.39972 17.099 7.63148C16.8672 7.86324 16.7358 8.17676 16.7329 8.5045C16.7301 8.83225 16.8561 9.148 17.0838 9.38375L22.4113 14.7125L6 14.75C5.66848 14.75 5.35054 14.8817 5.11612 15.1161C4.8817 15.3505 4.75 15.6685 4.75 16V16Z" fill="white"/>
</svg>
