<svg width="22" height="22" viewBox="0 0 16 16" fill="none" xmlns="http://www.w3.org/2000/svg">
<g clip-path="url(#clip0_22_104)">
<path d="M4.66667 0H2.66667C1.95942 0 1.28115 0.280952 0.781049 0.781049C0.280952 1.28115 0 1.95942 0 2.66667L0 4.66667C0 5.37391 0.280952 6.05219 0.781049 6.55229C1.28115 7.05238 1.95942 7.33333 2.66667 7.33333H4.66667C5.37391 7.33333 6.05219 7.05238 6.55229 6.55229C7.05238 6.05219 7.33333 5.37391 7.33333 4.66667V2.66667C7.33333 1.95942 7.05238 1.28115 6.55229 0.781049C6.05219 0.280952 5.37391 0 4.66667 0V0ZM6 4.66667C6 5.02029 5.85952 5.35943 5.60948 5.60948C5.35943 5.85952 5.02029 6 4.66667 6H2.66667C2.31304 6 1.97391 5.85952 1.72386 5.60948C1.47381 5.35943 1.33333 5.02029 1.33333 4.66667V2.66667C1.33333 2.31304 1.47381 1.97391 1.72386 1.72386C1.97391 1.47381 2.31304 1.33333 2.66667 1.33333H4.66667C5.02029 1.33333 5.35943 1.47381 5.60948 1.72386C5.85952 1.97391 6 2.31304 6 2.66667V4.66667Z" fill="white"/>
<path d="M13.3333 0H11.3333C10.626 0 9.94777 0.280952 9.44767 0.781049C8.94758 1.28115 8.66663 1.95942 8.66663 2.66667V4.66667C8.66663 5.37391 8.94758 6.05219 9.44767 6.55229C9.94777 7.05238 10.626 7.33333 11.3333 7.33333H13.3333C14.0405 7.33333 14.7188 7.05238 15.2189 6.55229C15.719 6.05219 15.9999 5.37391 15.9999 4.66667V2.66667C15.9999 1.95942 15.719 1.28115 15.2189 0.781049C14.7188 0.280952 14.0405 0 13.3333 0V0ZM14.6666 4.66667C14.6666 5.02029 14.5261 5.35943 14.2761 5.60948C14.026 5.85952 13.6869 6 13.3333 6H11.3333C10.9797 6 10.6405 5.85952 10.3905 5.60948C10.1404 5.35943 9.99996 5.02029 9.99996 4.66667V2.66667C9.99996 2.31304 10.1404 1.97391 10.3905 1.72386C10.6405 1.47381 10.9797 1.33333 11.3333 1.33333H13.3333C13.6869 1.33333 14.026 1.47381 14.2761 1.72386C14.5261 1.97391 14.6666 2.31304 14.6666 2.66667V4.66667Z" fill="white"/>
<path d="M4.66667 8.66663H2.66667C1.95942 8.66663 1.28115 8.94758 0.781049 9.44767C0.280952 9.94777 0 10.626 0 11.3333L0 13.3333C0 14.0405 0.280952 14.7188 0.781049 15.2189C1.28115 15.719 1.95942 15.9999 2.66667 15.9999H4.66667C5.37391 15.9999 6.05219 15.719 6.55229 15.2189C7.05238 14.7188 7.33333 14.0405 7.33333 13.3333V11.3333C7.33333 10.626 7.05238 9.94777 6.55229 9.44767C6.05219 8.94758 5.37391 8.66663 4.66667 8.66663V8.66663ZM6 13.3333C6 13.6869 5.85952 14.026 5.60948 14.2761C5.35943 14.5261 5.02029 14.6666 4.66667 14.6666H2.66667C2.31304 14.6666 1.97391 14.5261 1.72386 14.2761C1.47381 14.026 1.33333 13.6869 1.33333 13.3333V11.3333C1.33333 10.9797 1.47381 10.6405 1.72386 10.3905C1.97391 10.1404 2.31304 9.99996 2.66667 9.99996H4.66667C5.02029 9.99996 5.35943 10.1404 5.60948 10.3905C5.85952 10.6405 6 10.9797 6 11.3333V13.3333Z" fill="white"/>
<path d="M13.3333 8.66663H11.3333C10.626 8.66663 9.94777 8.94758 9.44767 9.44767C8.94758 9.94777 8.66663 10.626 8.66663 11.3333V13.3333C8.66663 14.0405 8.94758 14.7188 9.44767 15.2189C9.94777 15.719 10.626 15.9999 11.3333 15.9999H13.3333C14.0405 15.9999 14.7188 15.719 15.2189 15.2189C15.719 14.7188 15.9999 14.0405 15.9999 13.3333V11.3333C15.9999 10.626 15.719 9.94777 15.2189 9.44767C14.7188 8.94758 14.0405 8.66663 13.3333 8.66663V8.66663ZM14.6666 13.3333C14.6666 13.6869 14.5261 14.026 14.2761 14.2761C14.026 14.5261 13.6869 14.6666 13.3333 14.6666H11.3333C10.9797 14.6666 10.6405 14.5261 10.3905 14.2761C10.1404 14.026 9.99996 13.6869 9.99996 13.3333V11.3333C9.99996 10.9797 10.1404 10.6405 10.3905 10.3905C10.6405 10.1404 10.9797 9.99996 11.3333 9.99996H13.3333C13.6869 9.99996 14.026 10.1404 14.2761 10.3905C14.5261 10.6405 14.6666 10.9797 14.6666 11.3333V13.3333Z" fill="white"/>
</g>
<defs>
<clipPath id="clip0_22_104">
<rect width="16" height="16" fill="white"/>
</clipPath>
</defs>
</svg>
