<svg width="22" height="22" viewBox="0 0 16 16" fill="none" xmlns="http://www.w3.org/2000/svg">
<g clip-path="url(#clip0_22_113)">
<path d="M13.3333 7.99999C12.9244 7.99991 12.5209 8.09405 12.1541 8.2751C11.7874 8.45616 11.4673 8.71925 11.2187 9.04399L11.172 9.02399C11.3554 8.456 11.3828 7.8492 11.2516 7.26696C11.1203 6.68473 10.8352 6.14841 10.4258 5.71403C10.0165 5.27964 9.49808 4.96313 8.92466 4.79754C8.35125 4.63195 7.74388 4.62335 7.16601 4.77266L7.10535 4.65799C7.5896 4.22714 7.9001 3.63448 7.97868 2.99108C8.05726 2.34769 7.89851 1.69772 7.53218 1.16299C7.16585 0.628263 6.61709 0.245476 5.98875 0.0863709C5.3604 -0.0727344 4.6956 0.00276293 4.11894 0.298714C3.54227 0.594665 3.09332 1.09075 2.85623 1.69401C2.61913 2.29727 2.61017 2.96628 2.83102 3.57567C3.05186 4.18506 3.48736 4.693 4.05589 5.0043C4.62442 5.31559 5.28696 5.40887 5.91935 5.26666L5.96801 5.35799C5.30138 5.86954 4.85294 6.61433 4.71271 7.44284C4.57248 8.27134 4.75085 9.12222 5.21201 9.82466L3.95535 11C3.38732 10.6862 2.72435 10.5902 2.09067 10.7302C1.45699 10.8701 0.89609 11.2364 0.513077 11.7602C0.130063 12.2841 -0.0487738 12.9297 0.0100775 13.5759C0.0689289 14.2222 0.36143 14.8248 0.832768 15.2709C1.30411 15.717 1.92193 15.9759 2.57047 15.9991C3.21901 16.0223 3.85374 15.8082 4.35574 15.3969C4.85773 14.9856 5.19252 14.4054 5.29738 13.765C5.40224 13.1246 5.26997 12.4679 4.92535 11.918L6.15068 10.7727C6.82367 11.2225 7.63751 11.4116 8.4399 11.3048C9.24229 11.1979 9.97823 10.8023 10.51 10.192L10.696 10.2713C10.6153 10.8096 10.7013 11.3597 10.9424 11.8478C11.1835 12.3358 11.5681 12.7383 12.0447 13.0013C12.5212 13.2644 13.0669 13.3752 13.6083 13.3191C14.1497 13.263 14.661 13.0425 15.0734 12.6873C15.4858 12.3321 15.7797 11.8591 15.9155 11.332C16.0514 10.8049 16.0226 10.2489 15.8332 9.73859C15.6437 9.2283 15.3027 8.7882 14.8558 8.47741C14.4089 8.16662 13.8777 8.00002 13.3333 7.99999V7.99999ZM4.00001 2.66666C4.00001 2.40295 4.07821 2.14516 4.22472 1.9259C4.37123 1.70663 4.57947 1.53573 4.8231 1.43482C5.06674 1.3339 5.33482 1.3075 5.59347 1.35894C5.85211 1.41039 6.08968 1.53738 6.27615 1.72385C6.46262 1.91032 6.58961 2.14789 6.64106 2.40654C6.69251 2.66518 6.6661 2.93327 6.56519 3.1769C6.46427 3.42054 6.29337 3.62877 6.07411 3.77528C5.85484 3.92179 5.59705 3.99999 5.33335 3.99999C4.97972 3.99999 4.64058 3.85951 4.39054 3.60947C4.14049 3.35942 4.00001 3.02028 4.00001 2.66666ZM2.66668 14.6667C2.40297 14.6667 2.14518 14.5885 1.92592 14.4419C1.70665 14.2954 1.53576 14.0872 1.43484 13.8436C1.33392 13.5999 1.30752 13.3318 1.35896 13.0732C1.41041 12.8146 1.5374 12.577 1.72387 12.3905C1.91034 12.204 2.14792 12.0771 2.40656 12.0256C2.6652 11.9742 2.93329 12.0006 3.17692 12.1015C3.42056 12.2024 3.6288 12.3733 3.7753 12.5926C3.92181 12.8118 4.00001 13.0696 4.00001 13.3333C4.00001 13.6869 3.85954 14.0261 3.60949 14.2761C3.35944 14.5262 3.0203 14.6667 2.66668 14.6667ZM8.00001 9.99999C7.56714 9.99914 7.14622 9.85788 6.80049 9.59741C6.45475 9.33694 6.20284 8.97133 6.08262 8.55549C5.96239 8.13964 5.98032 7.69602 6.13372 7.29124C6.28712 6.88646 6.56771 6.54237 6.93335 6.31066L7.20468 6.16599C7.47732 6.04739 7.77297 5.99108 8.07011 6.00114C8.36726 6.01119 8.65842 6.08738 8.92242 6.22414C9.18641 6.3609 9.4166 6.5548 9.59621 6.79172C9.77583 7.02865 9.90037 7.30264 9.96076 7.59376C10.0211 7.88487 10.0159 8.18579 9.94532 8.47462C9.87476 8.76344 9.7407 9.0329 9.55288 9.26338C9.36507 9.49386 9.12824 9.67958 8.85961 9.807C8.59098 9.93442 8.29733 10.0004 8.00001 9.99999V9.99999ZM13.3333 12C13.0696 12 12.8118 11.9218 12.5926 11.7753C12.3733 11.6288 12.2024 11.4205 12.1015 11.1769C12.0006 10.9333 11.9742 10.6652 12.0256 10.4065C12.0771 10.1479 12.2041 9.91032 12.3905 9.72385C12.577 9.53738 12.8146 9.41039 13.0732 9.35894C13.3319 9.3075 13.6 9.3339 13.8436 9.43482C14.0872 9.53573 14.2955 9.70663 14.442 9.9259C14.5885 10.1452 14.6667 10.4029 14.6667 10.6667C14.6667 11.0203 14.5262 11.3594 14.2762 11.6095C14.0261 11.8595 13.687 12 13.3333 12Z" fill="white"/>
</g>
<defs>
<clipPath id="clip0_22_113">
<rect width="16" height="16" fill="white"/>
</clipPath>
</defs>
</svg>
